<?xml version="1.0" standalone="no"?>
<!DOCTYPE svg PUBLIC "-//W3C//DTD SVG 20010904//EN"
 "http://www.w3.org/TR/2001/REC-SVG-20010904/DTD/svg10.dtd">
<svg version="1.0" xmlns="http://www.w3.org/2000/svg"
 width="600.000000pt" height="600.000000pt" viewBox="0 0 600.000000 600.000000"
 preserveAspectRatio="xMidYMid meet">
<metadata>
Created by potrace 1.11, written by Peter Selinger 2001-2013
</metadata>
<g transform="translate(0.000000,600.000000) scale(0.100000,-0.100000)"
fill="#000000" stroke="none">
<path d="M2873 5993 c20 -2 54 -2 75 0 20 2 3 4 -38 4 -41 0 -58 -2 -37 -4z"/>
<path d="M3053 5993 c20 -2 54 -2 75 0 20 2 3 4 -38 4 -41 0 -58 -2 -37 -4z"/>
<path d="M2718 5983 c6 -2 18 -2 25 0 6 3 1 5 -13 5 -14 0 -19 -2 -12 -5z"/>
<path d="M2250 4965 c-509 -564 -931 -1036 -939 -1048 -12 -20 10 -109 208
-849 121 -455 230 -846 242 -870 41 -83 89 -118 162 -118 61 0 125 36 150 83
41 80 38 93 -228 1083 -136 504 -243 920 -238 924 9 9 796 220 819 220 8 0 14
-2 14 -5 0 -3 108 -412 241 -908 133 -496 250 -942 260 -992 54 -262 25 -501
-86 -712 -151 -286 -415 -466 -805 -550 -62 -13 -126 -18 -235 -17 -133 1
-160 4 -238 27 -155 48 -263 114 -378 234 -111 115 -199 267 -264 454 -19 57
-102 352 -184 654 -81 303 -152 548 -157 545 -5 -2 -132 -141 -282 -307 l-274
-303 27 -126 c188 -899 783 -1668 1600 -2069 201 -99 309 -142 488 -194 262
-77 473 -109 757 -118 514 -15 958 81 1415 307 308 152 552 326 795 570 244
243 418 487 570 795 226 457 322 900 307 1415 -13 466 -119 875 -331 1287
-284 549 -727 993 -1281 1284 -335 176 -775 305 -1115 325 l-95 5 -925 -1026z
m2600 53 c-23 -86 -350 -1497 -350 -1511 0 -11 697 -779 1098 -1209 14 -15 24
-30 21 -32 -2 -3 -191 -54 -419 -116 -228 -61 -422 -113 -431 -116 -11 -3 -93
82 -275 284 -142 159 -260 288 -262 287 -2 -2 -27 -168 -57 -370 -29 -201 -55
-369 -58 -371 -7 -7 -851 -234 -854 -230 -2 2 82 358 186 792 104 434 191 797
193 806 2 11 -188 223 -545 609 -301 325 -547 593 -545 594 2 2 190 53 418
114 228 62 423 114 432 117 12 3 83 -69 260 -265 210 -233 244 -266 250 -248
4 12 25 168 48 347 23 179 42 325 43 326 9 5 826 222 839 223 14 1 15 -4 8
-31z"/>
<path d="M2628 5973 c7 -3 16 -2 19 1 4 3 -2 6 -13 5 -11 0 -14 -3 -6 -6z"/>
<path d="M11 3274 c0 -11 3 -14 6 -6 3 7 2 16 -1 19 -3 4 -6 -2 -5 -13z"/>
<path d="M3 3110 c0 -25 2 -35 4 -22 2 12 2 32 0 45 -2 12 -4 2 -4 -23z"/>
<path d="M3 2890 c0 -30 2 -43 4 -27 2 15 2 39 0 55 -2 15 -4 2 -4 -28z"/>
<path d="M12 2730 c0 -14 2 -19 5 -12 2 6 2 18 0 25 -3 6 -5 1 -5 -13z"/>
<path d="M21 2634 c0 -11 3 -14 6 -6 3 7 2 16 -1 19 -3 4 -6 -2 -5 -13z"/>
<path d="M32 2560 c0 -14 2 -19 5 -12 2 6 2 18 0 25 -3 6 -5 1 -5 -13z"/>
</g>
</svg>
